<svg xmlns="http://www.w3.org/2000/svg" viewBox="0 0 480.24 129.87"><defs><style>.cls-1{fill:#fff;}</style></defs><title>GitHub_Logo</title><path class="cls-1" d="M92.5 55.59h-40.36a1.89 1.89 0 0 0-1.89 1.89v19.72a1.89 1.89 0 0 0 1.89 1.89h15.74v24.51s-3.54 1.21-13.31 1.21c-11.53 0-27.64-4.21-27.64-39.63s16.78-40.09 32.53-40.09c13.63 0 19.5 2.4 23.24 3.56a1.9 1.9 0 0 0 2.3-1.85l4.5-19.06a1.76 1.76 0 0 0-.72-1.47c-1.56-1.09-10.78-6.27-34.2-6.27-26.95 0-54.58 11.46-54.58 66.56s31.64 63.31 58.3 63.31c22.08 0 35.47-9.43 35.47-9.43a1.62 1.62 0 0 0 .61-1.43v-61.54a1.89 1.89 0 0 0-1.88-1.88z"/><path class="cls-1" d="M300.47 6.6a1.88 1.88 0 0 0-1.87-1.9h-22.72a1.89 1.89 0 0 0-1.88 1.9v43.91h-35.42v-43.91a1.88 1.88 0 0 0-1.87-1.9h-22.71a1.89 1.89 0 0 0-1.88 1.9v118.9a1.89 1.89 0 0 0 1.88 1.9h22.72a1.89 1.89 0 0 0 1.88-1.9v-50.85h35.4l-.06 50.86a1.89 1.89 0 0 0 1.88 1.9h22.78a1.89 1.89 0 0 0 1.88-1.9v-118.91z"/><path class="cls-1" d="M135.38 22.2a14.65 14.65 0 1 0-14.66 14.8 14.72 14.72 0 0 0 14.66-14.8z"/><path class="cls-1" d="M133.75 100.42v-54.88a1.89 1.89 0 0 0-1.88-1.89h-22.65a2.17 2.17 0 0 0-2 2.11v78.64c0 2.31 1.44 3 3.3 3h20.48c2.24 0 2.79-1.1 2.79-3v-23.98z"/><path class="cls-1" d="M386.83 43.82h-22.55a1.89 1.89 0 0 0-1.88 1.9v58.28a25.48 25.48 0 0 1-13.86 4.19c-8.13 0-10.29-3.69-10.29-11.65v-50.82a1.89 1.89 0 0 0-1.87-1.9h-22.88a1.89 1.89 0 0 0-1.88 1.9v54.69c0 23.65 13.18 29.43 31.31 29.43 14.87 0 26.87-8.22 26.87-8.22a47.74 47.74 0 0 0 .83 4.84 2 2 0 0 0 1.66 1l14.56-.06a1.89 1.89 0 0 0 1.88-1.9v-79.78a1.89 1.89 0 0 0-1.9-1.9z"/><path class="cls-1" d="M448.46 41.15a42.4 42.4 0 0 0-21.52 5.71v-40.26a1.88 1.88 0 0 0-1.87-1.9h-22.79a1.89 1.89 0 0 0-1.88 1.9v118.9a1.89 1.89 0 0 0 1.88 1.9h15.81a1.88 1.88 0 0 0 1.65-1c.39-.64 1-5.48 1-5.48s9.32 8.83 27 8.83c20.71 0 32.58-10.5 32.58-47.15s-19.04-41.45-31.86-41.45zm-8.89 67a27 27 0 0 1-13.13-3.79v-37.66a30.05 30.05 0 0 1 11.65-3.78c8.13-.73 15.91 1.73 15.91 21.08 0 20.44-3.49 24.47-14.43 24.14z"/><path class="cls-1" d="M199.06 43.63h-17.06v-22.52a1.18 1.18 0 0 0-1.42-1.28h-23.25a1.17 1.17 0 0 0-1.39 1.27v23.27s-11.64 2.81-12.43 3a1.89 1.89 0 0 0-1.36 1.81v14.66a1.89 1.89 0 0 0 1.88 1.9h11.91v35.18c0 26.13 18.33 28.7 30.7 28.7a51.86 51.86 0 0 0 13.53-2.23 1.76 1.76 0 0 0 1.07-1.71v-16.09a1.92 1.92 0 0 0-1.88-1.9c-1 0-3.53.4-6.15.4-8.37 0-11.21-3.89-11.21-8.93v-33.43h17a1.89 1.89 0 0 0 1.88-1.9v-18.3a1.89 1.89 0 0 0-1.82-1.9z"/></svg>