<svg xmlns="http://www.w3.org/2000/svg" viewBox="0 0 361.13 124.9"><defs><style>.cls-1{fill:#fff;fill-rule:evenodd;}</style></defs><title>google</title><path class="cls-1" d="M358.11 46.4c1.89-.78 2-.92 1.34-2.92-4-11.4-19-17.55-31.83-12.21-10.1 4.21-17.41 14.89-17.41 26.83 0 16.09 11.61 30.4 27.39 30.4 7.23 0 12.37-1 17-3.9 1-.91 6.51-5.34 6.56-6.28 0-.22-.78.47-2 1.13-3.56 1.87-8.91 2.59-13.1 2.67-8.48.16-15.25-5.62-19.67-12.48a32.48 32.48 0 0 1-5.14-14.88c-.7-8.33 1.33-17.91 10.75-20.27 6.26-1.56 12.19 1.94 14.5 8 1 2.74.42 4.16-2.12 5.2l-22.64 9.46 7.72.49c9.19-3.81 19.48-7.39 28.67-11.21z"/><path class="cls-1" d="M288.42 0h16.9c-2.35 1.52-3.14 2.16-4.15 3.76-.72 1.15-.91 3.32-1 5.29-1 22.57-.38 45.3-.53 67.87.09 6.15 2.51 5.43 10.51 5.19a39.31 39.31 0 0 1-4.72 3.89l-21.32-.16c2.72-2.81 4.11-4.62 3.93-11.64.14-23.58-.79-46.22.65-68.93-3.38.1-6.46 0-9.84.14 3.19-1.65 6.22-4 9.58-5.45z"/><path class="cls-1" d="M257.87 89.88c1.22.89 2.48 1.76 3.79 2.58 7.1 4.5 9.36 10 8.79 15.07-.7 6.12-6.56 10.94-16.62 11.55-10.73.65-25.18-3.6-22.5-17.71 1.42-7.52 11.4-11.4 19.65-11.68 2.28-.08 4.61.11 6.89.19zm24.26-58.75l-7.23 4.68h-8.23a21.16 21.16 0 0 1 7.6 9.82 18.43 18.43 0 0 1 .19 13 19.92 19.92 0 0 1-9 10c-2.54 1.49-3.82 3.37-4 5.18-.41 5.27 6 9.1 9.75 11.89 8.15 6.1 11.33 16.11 5.94 25.78-5.15 9.23-17.42 13.35-30.45 13.4-16.18-.07-26.39-7.49-26.93-17.58-.7-13 12.69-19.25 24.78-20.67a48.35 48.35 0 0 1 9.26-.13c-4.28-2.82-5.88-8.56-3.7-12.39.57-1 .21-.66-.87-.49-9.89 1.49-20.08-5-22.47-14.72a21.92 21.92 0 0 1 1.43-14.18c4.1-8.8 13.2-13.68 23.31-13.68 10.51 0 20.25 0 30.55.09zm-18.2 21.46c1.29 7.81-.7 15.22-7.76 17.17-7.23 2-15.22-3.62-17.79-13.69-2.82-11 .1-18.05 6.91-20.17 8.06-2.51 16.68 4.76 18.65 16.69z"/><path class="cls-1" d="M190.2 29.5c19.39 0 29.51 12.89 30.42 28s-11.51 28.5-26.7 30.12c-18.26 1.94-34.21-10.64-34.21-29 0-16 13.69-29.13 30.48-29.13zm18.33 29.93c1.11 11.07-2.6 21.35-12.53 23.65-10.16 2.35-20.94-6.08-23.63-20.4-3-15.71 1.93-26.06 11.52-28.6 11.36-3 22.95 8.46 24.64 25.36z"/><path class="cls-1" d="M123.73 29.5c19.62 0 29.86 12.89 30.78 28s-11.65 28.51-27 30.13c-18.51 1.93-34.63-10.63-34.63-28.99 0-16 13.86-29.13 30.84-29.13zm18.54 29.93c1.12 11.07-2.63 21.35-12.68 23.65-10.28 2.35-21.18-6.08-23.91-20.4-3-15.71 1.95-26.06 11.66-28.6 11.5-3 23.22 8.46 24.93 25.36z"/><path class="cls-1" d="M75 21.43l8.82-9c-15.01-12.43-40.69-14.02-57.71-5.43-14.8 7.5-25.56 22.36-26.11 39-.55 17.47 9.6 31.29 19.9 38.24 17 11.47 46.5 8.92 64.26-.05v-20.009999999999998l4.14-4.84h-25.86l-9.58 5.4 18.61-.55v16.13c0 2.29 0 2.66-3.74 3.88a51.1 51.1 0 0 1-16.79 1.2c-18.58-1.55-32.75-16.23-36.11-34.55-3.18-17.38 5-33.82 18.87-40.6a31.11 31.11 0 0 1 23.69-2.06 36.89 36.89 0 0 1 14.89 9.33l-3 5.53 5.72-1.62z"/></svg>