<svg xmlns="http://www.w3.org/2000/svg" viewBox="0 0 177.22 53.51"><defs><style>.cls-1,.cls-2{fill:#fff;}.cls-2{fill-rule:evenodd;}</style></defs><title>heroku</title><path class="cls-1" d="M67.1 42v-16.84a1.67 1.67 0 0 0-1.89-1.7 18 18 0 0 0-6.95 1.54v17h-4.73v-31.24h4.73v10.29a22.62 22.62 0 0 1 7.62-1.54c4.3 0 5.92 2.64 5.92 6.27v16.22h-4.7zm13.52-10.22c.16 5.64 1.26 6.75 4.73 6.75a24.38 24.38 0 0 0 8.17-1.82l.79 3.55a22.12 22.12 0 0 1-9.31 2.25c-7.89 0-9.11-4.34-9.11-11.24a37.53 37.53 0 0 1 1.22-10.37 27.06 27.06 0 0 1 9.51-1.38c6.47 0 8.44 3.59 8.44 9.86v2.41h-14.44zm6-8.32a31.68 31.68 0 0 0-5.52.39 25.16 25.16 0 0 0-.51 4.65h9.86c0-3.27-.59-5-3.83-5zm17.32 1.54v17h-4.74v-19.13a27.4 27.4 0 0 1 11-3v3.95a20.11 20.11 0 0 0-6.26 1.18zm18.74 17.51c-7.06 0-10.26-3.47-10.26-11.4 0-8.4 4.22-11.6 10.26-11.6 7.06 0 10.25 3.47 10.25 11.4 0 8.4-4.22 11.6-10.25 11.6zm0-19.05c-3.63 0-5.64 2.09-5.64 7.65 0 6.07 1.7 7.42 5.64 7.42 3.63 0 5.64-2.05 5.64-7.61 0-6.08-1.7-7.45-5.64-7.45zm33.08 18.54h-5.56a30.82 30.82 0 0 0-5.92-10.1h-2.48v10.1h-4.73v-31.24h4.73v17.91h2.2a28.72 28.72 0 0 0 5.56-8.6h5.32a37 37 0 0 1-6.74 9.54 66.84 66.84 0 0 1 7.62 12.39zm8.87.55c-4.3 0-5.92-2.64-5.92-6.27v-16.21h4.69v16.76a1.67 1.67 0 0 0 1.89 1.7 19.12 19.12 0 0 0 7.2-1.53v-16.93h4.73v19a25.1 25.1 0 0 1-12.58 3.43z"/><path class="cls-2" d="M38.06 53.51h-32.96a5.1 5.1 0 0 1-5.1-5.1v-43.31a5.1 5.1 0 0 1 5.1-5.1h33a5.1 5.1 0 0 1 5.11 5.1v43.3a5.1 5.1 0 0 1-5.11 5.1zm3.35-48.12a3.65 3.65 0 0 0-3.65-3.65h-32.36a3.65 3.65 0 0 0-3.65 3.65v42.73a3.65 3.65 0 0 0 3.65 3.64h32.37a3.65 3.65 0 0 0 3.65-3.65v-42.72z"/><path class="cls-1" d="M27 46.15v-21.25s1.43-5.09-17 2.1v-19.65h6v12.59s16.84-6.63 16.84 5v21.21h-5.84zm3.43-31.2h-6.33a39.39 39.39 0 0 0 4.37-7.62h6.6a31.54 31.54 0 0 1-4.59 7.62zm-20.33 31.16v-12.11l6.05 6.05-6.05 6.06z"/></svg>