<svg xmlns="http://www.w3.org/2000/svg" viewBox="0 0 85.06 82.06"><defs><style>.cls-1{fill:#1f1a17;}</style></defs><title>icon-cssdevconf-speakers</title><path class="cls-1" d="M18.5 39.74a12.4 12.4 0 0 0 3.7-.56 11.94 11.94 0 0 1 2.93-1.35 12.45 12.45 0 0 0 5.37-7.29l-.13-.13a18.72 18.72 0 0 1-5.49-13.26v-.49a12.42 12.42 0 1 0-6.38 23.08zm59.16 3.91h-8.47a11.84 11.84 0 0 1 1.41 5.6v32.8h4a13.74 13.74 0 0 0 10.46-4.85v-26.15a7.42 7.42 0 0 0-7.4-7.4zm-15.28-26.51a18.67 18.67 0 0 1-5.5 13.26 18.91 18.91 0 0 1-1.88 1.6 12.46 12.46 0 0 0 4.13 5.31 11.89 11.89 0 0 1 6.65 2.4h.72a12.42 12.42 0 1 0-4.24-24.11q.12.78.12 1.54zm-35.56-.34a16.81 16.81 0 1 0 16.81-16.8 16.81 16.81 0 0 0-16.81 16.81zm1.79 22.1a10 10 0 0 0-10 10v33.16h50.05v-33.14a10 10 0 0 0-10-10h-30zm-10.54 4.75h-10.67a7.42 7.42 0 0 0-7.4 7.4v26.25a13.74 13.74 0 0 0 10.38 4.76h6.28v-32.81a11.84 11.84 0 0 1 1.41-5.6z"/></svg>