<svg xmlns="http://www.w3.org/2000/svg" viewBox="0 0 100 46.14"><title>icon-cssdevconf-savings</title><path d="M66.94 23.11a17.59 17.59 0 0 1-13 17h40.06v-34h-40.35a17.59 17.59 0 0 1 13.29 17zm13-5.63a5.63 5.63 0 1 1-5.63 5.63 5.63 5.63 0 0 1 5.69-5.63zM0 0v46.14h100v-46.14h-100zm96.46 42.56h-92.92v-39h92.92v39zM41.54 18.22v.78a5.31 5.31 0 0 0 5.32 5.32h5.73a2 2 0 0 1 2 2v1.23a2 2 0 0 1-.56 1 2 2 0 0 1-1.46.61h-5.71a2 2 0 0 1-2-2 1.64 1.64 0 0 0-3.27 0 5.3 5.3 0 0 0 5.32 5.32h1.23v.82a1.64 1.64 0 0 0 3.27 0v-.76h1.22a5.3 5.3 0 0 0 5.3-4.91v-1.22a5.31 5.31 0 0 0-5.32-5.32h-5.75a2 2 0 0 1-2-2v-.86a2 2 0 0 1 2-2h5.73a2 2 0 0 1 2 2 1.65 1.65 0 0 0 1.63 1.64 1.65 1.65 0 0 0 1.64-1.64 5.31 5.31 0 0 0-5.32-5.32h-1.18v-.82a1.64 1.64 0 0 0-3.27 0v.82h-1.23a5.31 5.31 0 0 0-5.32 5.31zM31.74 23.11a17.59 17.59 0 0 1 13.26-17.05h-39v34h38.75a17.59 17.59 0 0 1-13.01-16.95zm-13 5.63a5.63 5.63 0 1 1 5.63-5.63 5.63 5.63 0 0 1-5.65 5.63z"/></svg>