<svg xmlns="http://www.w3.org/2000/svg" viewBox="0 0 84.59 85.03"><title>icon-cssdevconf-thumbsup</title><path d="M82.8 46l1.79-5.78a13.29 13.29 0 0 0-1.85-7.31 11.32 11.32 0 0 0-5-4.19 25.74 25.74 0 0 0-7.48-1.9c-2.82-.35-4.49.22-9.16.67l-2.25.37-2.25.75-4 1.12.13-2.62 1.87-10.66c.48-4.45-5.94-15.45-10.98-16.09l-2.5-.36c-5-.66.33 9.32-2.53 17.54l-7.59 17.46a26.56 26.56 0 0 0-2.5 2.6v39.57c4.55 2 12.24 4.52 14.37 5.36a24.81 24.81 0 0 0 9.16 1.73h9a24.08 24.08 0 0 0 8.79-1.56 19 19 0 0 0 6.66-4.34c1.83-1.86 1.26-4.09 2.23-6.63s3.47-5.37 3.47-8.41l-.6-5.78 1.79-5.78zM20.07 37.56v-6.3c0-1-1.23-1.87-2.74-1.87h-14.59c-1.51.01-2.74.84-2.74 1.88v51.89c0 1.03 1.23 1.84 2.74 1.84h14.59c1.51 0 2.74-.84 2.74-1.87v-45.57zm-9.77 40.73a5.62 5.62 0 0 1 0-11.22 5.62 5.62 0 0 1 0 11.22z"/></svg>