<svg xmlns="http://www.w3.org/2000/svg" viewBox="0 0 67.5 89.9"><title>icon-cssdevconf-css</title><path d="M67.4 21.2a3.1 3.1 0 0 0-.9-2.2l-16.8-18a3.1 3.1 0 0 0-2.4-1h-42a5.34 5.34 0 0 0-5.3 5.3v79.3a5.34 5.34 0 0 0 5.3 5.3h56.9a5.34 5.34 0 0 0 5.3-5.3zm-5.3 64.7h-56.8a1.32 1.32 0 0 1-1.3-1.3v-79.3a1.32 1.32 0 0 1 1.3-1.3h41.3v11.9a5.8 5.8 0 0 0 5.8 5.8h11.1v62.9a1.49 1.49 0 0 1-1.4 1.3zM27.2 66.9a1 1 0 0 0-1.6-.2 5.45 5.45 0 0 1-3.1 1.1c-2.9 0-4.2-2.3-4.2-4.5s1.2-4.3 4.2-4.3a5.78 5.78 0 0 1 2.8.8 1 1 0 0 0 1.6-.3l.5-.9a1.06 1.06 0 0 0-.3-1.6 8.53 8.53 0 0 0-4.8-1.4 7.63 7.63 0 0 0-7.9 7.7c0 4.5 3 7.8 7.9 7.8a7.91 7.91 0 0 0 5.2-1.8 1 1 0 0 0 .2-1.6zM34.5 60c0-.6.5-1 1.6-1a5.65 5.65 0 0 1 2.4.7 1 1 0 0 0 1.6-.4l.5-1a1.1 1.1 0 0 0-.4-1.6 7.76 7.76 0 0 0-4.1-1.1c-3 0-5.4 1.8-5.4 4.6 0 4.7 6.6 4.4 6.6 6.5 0 .6-.5 1-1.6 1a6 6 0 0 1-2.7-.9 1 1 0 0 0-1.6.3l-.7.9a1.09 1.09 0 0 0 .2 1.6 8.75 8.75 0 0 0 4.8 1.5c3.4 0 5.3-2.2 5.3-4.7.1-4.7-6.5-4.2-6.5-6.4zM47.9 60c0-.6.5-1 1.6-1a5.65 5.65 0 0 1 2.4.7 1 1 0 0 0 1.6-.4l.5-1a1.1 1.1 0 0 0-.4-1.6 7.76 7.76 0 0 0-4.1-1.1c-3 0-5.4 1.8-5.4 4.6 0 4.7 6.6 4.4 6.6 6.5 0 .6-.5 1-1.6 1a6 6 0 0 1-2.7-.9 1 1 0 0 0-1.6.3l-.7.9a1.09 1.09 0 0 0 .2 1.6 8.75 8.75 0 0 0 4.8 1.5c3.4 0 5.3-2.2 5.3-4.7.1-4.7-6.5-4.2-6.5-6.4z"/></svg>