<svg xmlns="http://www.w3.org/2000/svg" viewBox="0 0 175.75 47.24"><defs><style>.cls-1,.cls-2{fill:#fff;}.cls-1{fill-rule:evenodd;}</style></defs><title>Kaiser_Permanente</title><path class="cls-1" d="M31.83 14.28a5.69 5.69 0 0 0-1.92-1.15l-1.15 22.52 5.56-15.52c.57-2.4-.77-4.41-2.49-5.85z"/><path class="cls-1" d="M22.63 12.94l3.26 22.42 3.26-22.42a10.11 10.11 0 0 0-6.52 0z"/><path class="cls-1" d="M19.94 14.28c-1.82 1.44-3.07 3.45-2.59 5.75l5.56 15.52-1.05-22.42a4.89 4.89 0 0 0-1.92 1.15z"/><path class="cls-1" d="M8.64 16.39c3.73 6.51 7.57 13.61 11.21 19.83-1.25-5.46-2.59-14.56-4.5-17.15-2.2-3.07-6.71-2.68-6.71-2.68z"/><path class="cls-1" d="M2 19.64l15.26 17.73-9.39-20.89a7.37 7.37 0 0 0-5.87 3.16z"/><path class="cls-1" d="M33.93 24.43l-2.49 12.17c3.26-5.65 6.52-11.21 9.68-17-3.07.29-6.13 1.44-7.19 4.79z"/><path class="cls-1" d="M42 19.64l-8 18 14.12-15.41a8.55 8.55 0 0 0-6.12-2.59z"/><path class="cls-1" d="M0 27.69c5 3.83 10 7.76 15 11.6l-13.41-19a13.31 13.31 0 0 0-1.59 7.4z"/><path class="cls-1" d="M49.84 24.43a6.3 6.3 0 0 0-1.15-1.63l-12.26 16.68c4.89-3.64 9.58-7.28 14.18-11a7.08 7.08 0 0 0-.77-4z"/><path class="cls-1" d="M.11 35.45l12.89 5.94c-4.27-4.31-8.58-8.39-12.89-12.64v6.71z"/><path class="cls-1" d="M50.61 35.84v-6.14l-12.26 12c4.22-1.92 8-3.83 12.26-5.85z"/><path class="cls-1" d="M0 41.39c3.93.86 8.24 1.92 11.79 2.68l-11.79-7.75v5.08z"/><path class="cls-1" d="M50.61 41.68v-4.68c-3.64 2.4-7.47 4.79-10.83 7.19l10.83-2.49z"/><polygon class="cls-1" points="0.01 47.24 11.51 47.24 0.01 42.35 0.01 47.24 0.01 47.24"/><path class="cls-1" d="M50.61 47.24v-4.5c-3.74 1.63-7 3-10.54 4.5h10.54z"/><circle class="cls-2" cx="46.68" cy="13.7"/><path class="cls-1" d="M46.68 13.7c.19-6.8-10-6.9-9.77 0-.1 6.32 10.06 6.61 9.77 0z"/><path class="cls-1" d="M14 10.16c.29-6.9-10.35-6.61-10 0-.38 6.9 10.64 7 10 0z"/><path class="cls-1" d="M25.89 11.5c4 .1 5.56-2.78 5.65-5.56.19-4.22-2.54-5.94-5.65-5.94s-5.65 1.82-5.56 5.94c.1 2.3 1.05 5.46 5.56 5.56z"/><polygon class="cls-1" points="83.57 27.41 85.77 27.41 85.77 14.66 83.57 14.66 83.57 27.41 83.57 27.41"/><path class="cls-1" d="M79.35 23.76l1.25 3.64h2.3l-4.41-12.74h-2.78l-3.71 10.83-3.64-4.6 4.89-6.23h-2.62l-4.5 6v-6h-2.2v12.74h2.2v-6.22l4.7 6.23h2.59l1.25-3.64h4.7zm-2.35-7.09l1.82 5.27h-3.59l1.77-5.27z"/><path class="cls-1" d="M99.57 43.69l-2.2-9.29h-3.93v12.84h2.2v-10.92l2.78 10.92h2.3l2.78-10.92v10.92h2.11v-12.84h-3.74l-2.3 9.29z"/><path class="cls-1" d="M111.17 34.4l-4.41 12.84h2.24l1.15-3.74h4.7l1.25 3.74h2.3l-4.46-12.84h-2.78zm-.48 7.38l1.72-5.37 1.82 5.37h-3.55z"/><path class="cls-1" d="M127.36 44.27l-5.08-9.87h-3v12.84h2.11v-9.68l5.08 9.68h3v-12.84h-2.11v9.87z"/><path class="cls-1" d="M169.33 45.32h-5.27v-3.54h3.83v-1.92h-3.83v-3.54h4.79v-1.92h-7v12.84h7.47v-1.92z"/><path class="cls-1" d="M149.11 34.4h-.38v10l-5.08-10h-3v10.92h-6.65v-3.54h3.93v-1.92h-3.93v-3.54h4.79v-1.92h-7v12.84h11v-9.77l5.08 9.77h3v-10.92h3.93v10.92h2.2v-10.92h3.83l-.1-1.92h-11.62z"/><path class="cls-1" d="M90.28 40.82a3.79 3.79 0 0 0 1.24-2.82 3.58 3.58 0 0 0-1.25-2.68c-.77-.67-1.82-1-3.74-1h-3.63v10.92h-6.8v-3.46h3.9v-1.92h-3.9v-3.54h4.79v-1.92h-7v12.84h11.21v-5.46h1.05c1.05 1.63 3.26 5.46 3.26 5.46h2.59l-3.45-5.65a3.19 3.19 0 0 0 1.72-.77zm-5.18-.82v-3.68h1.82c1.72 0 2.4.67 2.4 1.72 0 1.25-.67 1.92-2.4 1.92h-1.82z"/><path class="cls-1" d="M108.1 22h1.15c1 1.53 3.16 5.37 3.16 5.37h2.59l-3.45-5.56a3.64 3.64 0 0 0 1.72-.86 3.58 3.58 0 0 0 1.25-2.68 3.15 3.15 0 0 0-1.25-2.68c-.77-.67-1.82-1-3.64-1h-3.73v10.969999999999999h-6.8v-3.62h3.9v-1.82h-3.91v-3.64h4.91v-1.82h-7v12.74h11.1v-5.4zm0-2v-3.52h1.9c1.63 0 2.3.67 2.3 1.82s-.67 1.82-2.3 1.82h-1.9v-.12z"/><path class="cls-1" d="M71.3 35.36c-.77-.67-1.82-1-3.64-1h-3.73v12.88h2.2v-5.24h1.53c1.82 0 2.87-.29 3.64-1a4 4 0 0 0 1.25-2.87 3.62 3.62 0 0 0-1.25-2.78zm-3.3 4.69h-1.87v-3.73h1.87c1.72 0 2.4.77 2.4 1.82s-.77 1.92-2.4 1.92z"/><path class="cls-1" d="M95.55 23.76c0-1.82-1.15-3-3.35-3.83-1.72-.57-2.59-1.05-2.59-2.11 0-.77.77-1.63 2.4-1.63a6.07 6.07 0 0 1 2.68.67v-1.86a6.21 6.21 0 0 0-2.69-.53c-2.78 0-4.6 1.53-4.6 3.55s1.44 3 3.55 3.74c1.63.58 2.4 1.15 2.4 2.2s-1 1.82-2.49 1.82a6.62 6.62 0 0 1-3.45-1v2a7.53 7.53 0 0 0 3.35.77c3.26 0 4.79-1.82 4.79-3.83z"/><path class="cls-1" d="M170.86 44.56a2.2 2.2 0 1 1 2.2 2.2 2.17 2.17 0 0 1-2.2-2.2zm2.2 2.68a2.68 2.68 0 1 0-2.68-2.68 2.68 2.68 0 0 0 2.68 2.68zm-.57-2.49h.57l.77 1.34h.58l-1-1.34a.86.86 0 0 0 .86-.86q0-.86-1.15-.86h-1.12v3.07h.48v-1.35zm0-.38v-1h.67a.56.56 0 0 1 .67.48c0 .48-.38.48-.77.48h-.57z"/></svg>