<svg xmlns="http://www.w3.org/2000/svg" viewBox="0 0 130.58 36"><defs><style>.cls-1{fill:#231f20;}.cls-2{fill:#fff;}</style></defs><title>Artboard 1</title><rect class="cls-1" width="130.58" height="36"/><polygon class="cls-2" points="65.54 11.75 65.54 8.68 52.72 8.68 52.72 27.13 65.54 27.13 65.54 24.05 55.79 24.05 55.79 19.44 65.08 19.44 65.08 16.36 55.79 16.36 55.79 11.75 65.54 11.75"/><polygon class="cls-2" points="75.06 27.13 75.06 8.68 78.14 8.68 78.14 24.05 87.01 24.05 87.01 27.13 75.06 27.13"/><polygon class="cls-2" points="89.52 27.13 89.52 8.68 92.59 8.68 92.59 24.05 101.47 24.05 101.47 27.13 89.52 27.13"/><rect class="cls-2" x="68.77" y="8.68" width="3.07" height="18.45"/><path class="cls-2" d="M14.32 13.36a6.54 6.54 0 1 0 4.62-1.91 6.53 6.53 0 0 0-4.62 1.91m-4.99 4.64a9.61 9.61 0 1 1 9.61 9.61 9.61 9.61 0 0 1-9.61-9.61"/><path class="cls-2" d="M38.05 16.36v-4.61h6.2a2.31 2.31 0 0 1 0 4.61zm7.74 2.85a5.38 5.38 0 0 0-1.54-10.53h-9.25v18.45h3.08v-7.69h4.28l4.64 7.69h3.59z"/><path class="cls-2" d="M32.8 10.64a2.26 2.26 0 1 1-2.26-2.27 2.26 2.26 0 0 1 2.26 2.27"/><polygon class="cls-2" points="115.18 8.68 111.44 8.68 106.71 15.53 101.97 8.68 98.23 8.68 105.17 18.71 105.17 27.13 108.24 27.13 108.24 18.71 115.18 8.68"/><path class="cls-2" d="M119.39 12.68a2 2 0 1 1 2-2 2 2 0 0 1-2 2m0-4.43a2.41 2.41 0 1 0 2.41 2.41 2.41 2.41 0 0 0-2.41-2.41"/><path class="cls-2" d="M118.8 9.82h.95a.31.31 0 0 1 0 .61h-.95zm1.66.31a.71.71 0 0 0-.71-.72h-1.35v2.45h.41v-1h.69l.49 1h.45l-.5-1a.71.71 0 0 0 .53-.69"/></svg>