<svg xmlns="http://www.w3.org/2000/svg" viewBox="0 0 583.76 81.98"><defs><style>.cls-1{fill:#fff;}</style></defs><title>The_New_York_Times</title><path class="cls-1" d="M16.7 45.4v-22l-6.62 3a21.81 21.81 0 0 0-1.4 9.2 22.82 22.82 0 0 0 4.47 11.56l3.55-1.76m19.39-45.33a11.52 11.52 0 0 1 6.13 2.64 7.92 7.92 0 0 1 1.78 7.77 7.89 7.89 0 0 1-3.86 5.41 10.25 10.25 0 0 1-5.58 1.56v10.62l5.16 4.18-5.16 4.16v14.45a23.45 23.45 0 0 0 8.44-9.6s.13-.36.43-1c.29 1.78.12 5.38-1.89 10a18.64 18.64 0 0 1-7.76 8.74c-6.13 3.4-10.72 3.72-15.65 2.7a22.2 22.2 0 0 1-14.59-10.13 24.1 24.1 0 0 1-3.54-13.57c.2-9.78 7.48-18.22 15.88-21.37a8.4 8.4 0 0 1 2.88-.77c-.67.46-1.44 1-2.39 1.67a17.66 17.66 0 0 0-6 8l16.31-7.27v22.8l-13.16 6.61a17.15 17.15 0 0 0 9.95 5.67c6.62.73 10.53-2.16 10.53-2.16v-14.77l-5.13-4.16 5.13-4.17v-10.63a70 70 0 0 1-8.19-1.74c-2.95-.71-12.7-3.45-14.23-3.71s-3.42-.16-4.56.86a4.53 4.53 0 0 0-1.37 4.48 5 5 0 0 0 1.39 2 4.24 4.24 0 0 1-1.58-.66 7.4 7.4 0 0 1-3.41-5.93 9.82 9.82 0 0 1 4.1-8.75 12.36 12.36 0 0 1 8.63-2.17c4.8.68 11.26 3.4 17 4.78 2.23.54 4 .72 5.52-.19a2.71 2.71 0 0 0 1-3.69c-1.3-2.09-3.6-2.05-5.59-2.42a8.5 8.5 0 0 1 3.38-.24z"/><path class="cls-1" d="M99.54 39.66l-7.41 5.43v-18.09l7.41 12.63m-.21-17.31s-5 3-8.36 5l-7.87 4.19v21l-3 2.41.4.47 2.93-2.36 9.19 8.31 16-12.65-.38-.46-8.83 6.93-7.25-6.79v-2.51l14.57-10.72z"/><path class="cls-1" d="M57.47 69.26a14.82 14.82 0 0 0 10.26-1.43c4.94-2.47 7.42-7.72 7.39-13.1l.21-7.62v-16.64l3.16-2.41-.37-.47-3.12 2.34-7.17-8-9.2 7.9v-26.83l-11.48 8.9c.51.32 2.14.62 2.19 2.92v37.6l-4.87 3.58.33.5 2.35-1.75 6.54 6.09 10.31-8.18-.37-.47-2.43 1.92-2.56-2.54v-20.95l3-2.56 4.48 5.56v18.07c0 4.8 0 10.79-2.57 13.68s-3.53 3.13-6.1 3.89"/><path class="cls-1" d="M129 67.37c-4.12-.47-5.84-3-5.8-4.93a4.49 4.49 0 0 1 3.68-4.07c2.5-.35 5.06.83 7.22 3.36l9.51-10.5-.46-.41-2.55 2.86a16.63 16.63 0 0 0-9.94-5.35v-32l24.69 45a1.27 1.27 0 0 0 1.25.52c.87 0 .66-.71.66-.71v-45.31a11.26 11.26 0 0 0 6.56-2.71c4.75-4.89 2.81-10.22 2.29-10.73a5.15 5.15 0 0 1-5.11 4.68 8.75 8.75 0 0 1-6.31-2.88l-9.5 10.81.45.41 2.72-3.11a11.65 11.65 0 0 0 8.26 3.52v26.28l-18.31-33.28c-1.66-2.75-4.18-5.16-8.14-5.2-4.55 0-7.81 4-8.2 7.44-.44 3.9 0 4.8 0 4.8s.67-4.35 3.36-4.31c2.42 0 3.67 2.26 4.64 3.93v9.64c-2.49.17-9 .46-9.37 7.2a7.91 7.91 0 0 0 2.89 6 6.08 6.08 0 0 0 3.12 1.13 3 3 0 0 1-1.47-3.33c.56-2 4.68-2.3 4.83-1.48v13.6c-2 0-8.33.19-11.19 5.63a9.15 9.15 0 0 0 .22 9.55 9.56 9.56 0 0 0 9.92 3.9"/><path class="cls-1" d="M181.34 39.66l-7.41 5.43v-18.09l7.41 12.63m-.21-17.35s-5 3-8.36 5l-7.86 4.19v21l-3 2.41.4.47 2.93-2.36 9.19 8.31 16-12.65-.43-.39-8.83 6.93-7.26-6.79v-2.54l14.57-10.72z"/><path class="cls-1" d="M203.45 61.52l-7.83-6.52-3.44 2.5-.35-.5 3.5-2.56v-18.16c.17-7.49-6.86-5.63-6.48-13.58.17-3.49 3.55-6.13 5.26-7a9.46 9.46 0 0 1 3.8-.92s-3.21 2-2.43 4.89c1.2 4.44 8.79 4.84 8.94 10.76v20.57l5.58 4.53 1.47-1.15v-22.38l-3-3 7.78-6.89 7.11 6.3-2.71 2.94v19.8l6.66 5.5 1.18-.76v-23.79l-3-2.83 7.8-7.13 7.29 6 2.91-2.58.38.44-6.56 5.76v19.46l-16.77 10.35-8.54-6.8-8.51 6.75"/><path class="cls-1" d="M546.82 39.66l-7.41 5.43v-18.09l7.41 12.63m-.21-17.35s-5 3-8.36 5l-7.87 4.19v21l-3 2.41.4.47 2.93-2.36 9.19 8.31 16-12.65-.38-.46-8.83 6.93-7.26-6.79v-2.47l14.57-10.72z"/><polyline class="cls-1" points="471.63 31.1 472.02 31.56 475.03 28.97 479.5 34.02 479.5 51.38 477.33 53.36 484.29 61.22 491.42 54.19 488.49 51.15 488.49 30.15 490.27 28.74 495.2 34.5 495.2 51.81 493.35 53.66 499.9 61.03 506.9 54.02 504.33 51.32 504.26 30.24 506.15 28.7 511.3 34.37 511.3 51.58 509.61 53.27 516.84 61.16 526.55 52.2 526.14 51.75 523.78 53.92 520.17 49.91 520.17 30.26 523.66 27.61 523.29 27.13 519.8 29.78 513.19 22.38 503.74 29.84 497.13 22.64 488 29.78 481.32 22.68 471.63 31.1"/><polyline class="cls-1" points="451.86 30.56 452.25 31.02 454.8 28.82 458.77 33.53 458.77 53.37 455.97 55.82 456.36 56.28 459.3 53.77 465.71 61.16 474.98 52.89 474.58 52.44 471.86 54.84 468.03 50.42 468.03 31.02 471.26 28.22 470.87 27.77 467.8 30.41 461.05 22.54 451.86 30.56"/><polyline class="cls-1" points="454.53 14.13 461.51 7.74 467.18 14.03 460.17 20.39 454.53 14.13"/><path class="cls-1" d="M425.77 45.4v-22l-6.62 3a21.82 21.82 0 0 0-1.39 9.27 22.81 22.81 0 0 0 4.47 11.56l3.54-1.77m19.38-45.39a11.52 11.52 0 0 1 6.13 2.64 7.92 7.92 0 0 1 1.8 7.77 7.88 7.88 0 0 1-3.86 5.41 10.24 10.24 0 0 1-5.58 1.56v10.62l5.16 4.18-5.16 4.16v14.45a23.46 23.46 0 0 0 8.38-9.6s.13-.36.43-1c.29 1.78.13 5.38-1.89 10a18.65 18.65 0 0 1-7.72 8.74c-6.13 3.4-10.72 3.72-15.65 2.7a22.2 22.2 0 0 1-14.58-10.08 24.08 24.08 0 0 1-3.54-13.62c.2-9.78 7.48-18.22 15.88-21.37a8.37 8.37 0 0 1 2.88-.77c-.67.46-1.44 1-2.39 1.67a17.68 17.68 0 0 0-6 8l16.3-7.27v22.8l-13.15 6.59a17.15 17.15 0 0 0 9.95 5.67c6.62.73 10.51-2.16 10.51-2.16v-14.75l-5.13-4.16 5.08-4.17v-10.63a69.9 69.9 0 0 1-8.19-1.74c-2.93-.72-12.68-3.46-14.21-3.69s-3.42-.16-4.56.86a4.53 4.53 0 0 0-1.37 4.48 5 5 0 0 0 1.39 2 4.23 4.23 0 0 1-1.58-.66 7.4 7.4 0 0 1-3.41-5.93 9.82 9.82 0 0 1 4.15-8.77 12.36 12.36 0 0 1 8.63-2.17c4.8.68 11.26 3.4 17 4.78 2.23.54 4 .72 5.52-.19a2.71 2.71 0 0 0 1-3.69c-1.22-2.11-3.57-2.06-5.56-2.44a8.49 8.49 0 0 1 3.34-.22z"/><path class="cls-1" d="M567.39 26.37v10.43l3.47 3s7.54-6 10.28-11.63c0 0-3.39 4.6-8 3.19-3.82-1.16-5.8-5-5.8-5m-8.34 27.64s3.3-5.46 9-4.29c5.44 1.13 7.33 6.88 7.33 6.88v-13.21l-3.8-3.3c-4.22 4.19-11.64 10.25-12.53 13.92zm5.41 10c-1.06.31-5.66-.8-6.76-5.57s2.15-7.79 7-12.74l-5.75-5.26v-10s4.23-2.11 7.54-4.18l6.7-4.32s2.47 3.12 5.26 2.87c4.37-.38 4.17-3.83 4-4.65.75 1.33 2.74 5.29-4.94 14.15l6.26 5.05v13a125.71 125.71 0 0 0-14.14 8.8s-3.84-4.8-7.17-2.51c-2.22 1.64-1.19 4.26 1.97 5.44z"/><path class="cls-1" d="M312.87 49.25l8.08 7.31v-22.37l-8.08-7.48v22.54m16.66-18.25l2.82-2.59.4.46-2.75 2.52v20.73s-5.21 2.76-8.85 4.81l-7.52 4.46-9.56-8.05-2.53 2.2-.41-.46 2.66-2.32v-22.28s4.51-2 8.32-4.19c3.4-1.92 7.21-4.14 7.21-4.14z"/><path class="cls-1" d="M348.33 28.88l6.07-6.21a9 9 0 0 0 1.6 1.12 4.39 4.39 0 0 0 4 .24 7.49 7.49 0 0 0 2-1.58c.21 4.83-2.11 8.22-5 9.63-1.18.58-4.64 1.68-8.25-2.73v22.3l3.85 3.4 3.21-2.65.37.47-10.05 8.39-7.65-7-2.75 2.59-.45-.48 4.19-3.78v-19.26l-3.21-4.26-2.76 2.44-.4-.44 9.74-8.75 5.44 6.53"/><path class="cls-1" d="M373.95 38.17l11.23-16.34a8.62 8.62 0 0 0 4.06 2.44c3.51.91 6.57-2.47 6.57-2.47-.59 4.37-2.8 9.33-7.37 10.08-4 .67-7.78-2.46-7.78-2.46l-.73 1.13 15.59 23.55 3.12-2.74.4.46-10.7 9.35-14.4-23"/><path class="cls-1" d="M364.67 16.36c0-3.53-1.45-5.7-3.33-5.55l12.25-8.61v48.72l3.23 3.41 2.45-2.12.38.46-9.87 8.62-6.68-6.29-2.68 2.35-.42-.45 4.67-4.07v-36.47"/><path class="cls-1" d="M286 30.06a5 5 0 0 1-3.48 1.54 5.14 5.14 0 0 1-3.52-1.6v6.67a4.83 4.83 0 0 1 7-.08v-6.53m0-14.3l-4.73-4.15-2.27 1.8v15.59a5 5 0 0 0 3.53 1.78 4.81 4.81 0 0 0 3.47-1.7v-13.32zm-7 44.31a6.06 6.06 0 0 0 4.94-.95 5.69 5.69 0 0 0 2.06-4.58v-16.88a4.79 4.79 0 0 0-3.47-1.73 5 5 0 0 0-3.53 1.79v22.35zm-16.76-44.51c0-3.29-1.34-5.13-3.5-5.17-3.11-.07-3.85 4.32-3.85 4.32a8.2 8.2 0 0 1 2.27-6.46 9.1 9.1 0 0 1 9.21-3c4.8 1.16 6.16 4.89 6.16 8.17v45.3s1.81.22 3.06.49c1.44.3 2.81.68 2.81.68v-54.63h.6v7.37l9.84-7.92 7.16 6.41 3.36-2.9.38.46-3.51 3v42.15c-.17 2.75-.62 5.54-3.21 7.15-5.79 3.43-12.77-.53-19-1.43-4.62-.69-11.87-1.56-13.69 2.68a3.93 3.93 0 0 0 1.54 4.95c4.2 2.81 22.92-4.72 29.35-1.73 5.85 2.72 5.83 7 4.93 10-1.48 5.55-8.5 6.55-8.5 6.55s3.43-2 2.45-5.29c-.5-1.67-1.63-2.14-5.3-1.73-8 .91-17.62 4.8-24.06 2.1-3.32-1.38-5.67-5.54-5.44-9.62.17-5.87 6.94-8.19 6.94-8.19v-21.73c-.19-.86-3.81-.64-4.6 1-1.2 2.41 1.49 3.52 1.49 3.52a4.84 4.84 0 0 1-4.13-1.87 6.84 6.84 0 0 1-.34-8.18c2-2.82 4.48-3.31 7.56-3.65v-12.8z"/></svg>