<svg xmlns="http://www.w3.org/2000/svg" viewBox="0 0 225.7 88.8"><defs><style>.cls-1{fill:#fff;}</style></defs><title>time_warner_cable</title><path class="cls-1" d="M0 33.7a3 3 0 0 0 5.71 1.46c9.45-17 26.08-28.32 45-28.32 16.49 0 33.25 10.2 44 25.37a64.53 64.53 0 0 1-19.71 18.36 19.26 19.26 0 0 0 3.16-10.23c0-14-12.27-25.38-27.42-25.38-17.94.04-32.48 14.04-32.48 31.48 0 21.87 18.42 39.89 42.16 42.36h.32a3 3 0 0 0 .32-6.07c-20.67-2.13-36.72-17.57-36.72-36.29 0-14 11.82-25.39 26.4-25.39 11.78 0 21.32 8.64 21.32 19.29a15.64 15.64 0 0 1-15.22 15.23c-7.85 0-14.21-5.46-14.21-12.19a8.12 8.12 0 0 1 8.12-8.12 7.12 7.12 0 0 1 7 5.88 3 3 0 1 0 6-1.06 13.19 13.19 0 0 0-13-10.9 14.21 14.21 0 0 0-14.22 14.21c0 10.1 9.09 18.27 20.31 18.27 15.64 0 33.64-11.64 45.25-29.45-11.68-18.65-31.53-31.47-51.34-31.47-21.23 0-39.87 12.56-50.37 31.47a3.1 3.1 0 0 0-.38 1.49"/><path class="cls-1" d="M120.61 4.64v18.3a2.54 2.54 0 0 1-2.73 2.76h-.07a2.53 2.53 0 0 1-2.72-2.76v-18.3h-5a1.73 1.73 0 0 1-1.95-1.92v-.07a1.73 1.73 0 0 1 1.99-1.91h15.43a1.73 1.73 0 0 1 1.95 1.91v.07a1.73 1.73 0 0 1-1.95 1.92h-5z"/><path class="cls-1" d="M135 23.15a2.34 2.34 0 0 1-2.54 2.55h-.07a2.35 2.35 0 0 1-2.55-2.55v-13.77c0-1.76.72-2.62 2.45-2.62h.1c1.74 0 2.62 1.1 2.62 3.69v12.7zm-2.5-17.67a2.76 2.76 0 0 1-2.83-2.71 2.8 2.8 0 0 1 2.83-2.77 2.77 2.77 0 0 1 2.79 2.77 2.73 2.73 0 0 1-2.79 2.71"/><path class="cls-1" d="M144.53 11.65v11.5a2.34 2.34 0 0 1-2.53 2.55h-.07a2.34 2.34 0 0 1-2.55-2.55v-13.77c0-1.77.74-2.62 2.44-2.62h.1a2.31 2.31 0 0 1 2.44 2.24 11.29 11.29 0 0 1 6.64-2.34c1.91 0 3.65.56 4.43 2.36a11.57 11.57 0 0 1 6.87-2.36c2.62 0 4.85 1.2 4.85 5.18v11.3a2.34 2.34 0 0 1-2.54 2.55h-.11a2.34 2.34 0 0 1-2.5-2.54v-10c0-1.78-.6-2.37-2.17-2.37a11.24 11.24 0 0 0-4 .88v11.49a2.34 2.34 0 0 1-2.55 2.55h-.07a2.34 2.34 0 0 1-2.55-2.55v-10c0-1.78-.61-2.37-2.16-2.37a12.28 12.28 0 0 0-4 .85"/><path class="cls-1" d="M175.61 14.26h6.91c-.11-3.29-1.2-4.35-3.22-4.35-1.81 0-3.29.89-3.69 4.35m-.07 3.11c.25 3.72 2 4.75 4.89 4.75 3.11 0 3.86-1.52 5.07-1.52a1.54 1.54 0 0 1 1.5 1.77v.11a2.4 2.4 0 0 1-1.59 2.22 13 13 0 0 1-5.8 1.06c-6.09 0-9.42-3.61-9.42-9.45s3.9-9.65 9.06-9.65c5.74 0 8.32 3.52 8.32 8.38 0 1.49-.81 2.33-2.48 2.33h-9.6z"/><path class="cls-1" d="M133.61 33a2.44 2.44 0 0 1 2.39-2.24h.11c1.83 0 2.59 1.37 2.2 3.12l-4.49 18.86c-.57 2.38-1.77 3.15-3.65 3.15h-.17c-1.92 0-3.12-.82-3.69-3.22l-3-13.17h-.11l-3 13.24c-.53 2.38-1.77 3.15-3.64 3.15h-.22c-1.91 0-3.11-.77-3.68-3.19l-4.35-18.37c-.46-2 .39-3.57 2.4-3.57h.14a2.8 2.8 0 0 1 2.73 2.48l3.34 15.65h.08l3.65-15.4c.46-1.9 1.38-2.72 2.94-2.72h.07c1.52 0 2.44.82 2.9 2.75l3.76 15.37h.07z"/><path class="cls-1" d="M149.95 51.25v-3.54a14.89 14.89 0 0 0-2.66-.22c-2.09 0-3.43.75-3.43 2.55s1.17 2.62 2.9 2.62a4.74 4.74 0 0 0 3.19-1.42m.28 2.62a6.74 6.74 0 0 1-5.38 2.07c-3.47 0-6-1.92-6-5.59 0-3.9 3.11-5.82 7.4-5.82a14.26 14.26 0 0 1 3.72.43v-1.77c0-1.7-.92-2.59-3.41-2.59-2.9 0-3.43 1.46-4.82 1.46a1.61 1.61 0 0 1-1.56-1.78v-.11a2.36 2.36 0 0 1 1.81-2.4 14.88 14.88 0 0 1 5.38-.92c5.13 0 7.76 1.7 7.76 6v10.43c0 1.78-.6 2.62-2.27 2.62h-.11a2.51 2.51 0 0 1-2.51-2"/><path class="cls-1" d="M164.28 39.39a7.36 7.36 0 0 1 4.67-2.49c1.13 0 1.84.58 1.84 2.1v.12a2 2 0 0 1-2.2 2.32 14.75 14.75 0 0 0-4.18.85v11.05a2.34 2.34 0 0 1-2.55 2.55h-.06a2.35 2.35 0 0 1-2.56-2.55v-13.77c0-1.77.75-2.62 2.44-2.62h.11c1.23 0 2.12.81 2.48 2.44"/><path class="cls-1" d="M178.75 41.84v11.5a2.34 2.34 0 0 1-2.54 2.54h-.08a2.34 2.34 0 0 1-2.54-2.54v-13.77c0-1.77.74-2.62 2.45-2.62h.09c1.28 0 2.13.6 2.45 2.23a12 12 0 0 1 6.87-2.34c2.69 0 5 1 5 5.21v11.29a2.34 2.34 0 0 1-2.55 2.54h-.07a2.35 2.35 0 0 1-2.55-2.54v-10c0-1.84-.71-2.39-2.3-2.39a12.43 12.43 0 0 0-4.21.86"/><path class="cls-1" d="M198.93 44.44h6.9c-.11-3.28-1.2-4.34-3.22-4.34-1.81 0-3.3.87-3.68 4.34m-.07 3.12c.25 3.71 2 4.74 4.88 4.74 3.12 0 3.86-1.51 5.07-1.51a1.52 1.52 0 0 1 1.55 1.76v.11a2.42 2.42 0 0 1-1.58 2.23 13 13 0 0 1-5.78 1.11c-6.09 0-9.42-3.62-9.42-9.46s3.9-9.66 9.07-9.66c5.73 0 8.31 3.55 8.31 8.39a2.15 2.15 0 0 1-2.48 2.34h-9.59z"/><path class="cls-1" d="M219.18 39.39a7.35 7.35 0 0 1 4.66-2.49c1.13 0 1.85.58 1.85 2.1v.12a2 2 0 0 1-2.2 2.32 14.62 14.62 0 0 0-4.18.85v11.05a2.34 2.34 0 0 1-2.55 2.55h-.06a2.35 2.35 0 0 1-2.56-2.55v-13.77c0-1.77.75-2.62 2.45-2.62h.11c1.23 0 2.12.81 2.48 2.44"/><path class="cls-1" d="M120 86.18c-7.15 0-11.82-4.66-11.82-12.61s5.06-12.74 12.25-12.74a13.11 13.11 0 0 1 5.34.93 2.8 2.8 0 0 1 2 2.69v.1a1.89 1.89 0 0 1-1.84 2.13c-1.56 0-2.44-1.84-5.6-1.84-4.06 0-6.47 3-6.47 8.52 0 6 2.16 8.86 6.4 8.86 3.94 0 4.29-2.45 6-2.45a1.79 1.79 0 0 1 1.85 1.95v.18c0 1.32-.67 2.26-2.34 3.12a13.81 13.81 0 0 1-5.77 1.16"/><path class="cls-1" d="M141.81 81.44v-3.54a15.52 15.52 0 0 0-2.65-.21c-2.1 0-3.44.73-3.44 2.54s1.17 2.62 2.9 2.62a4.76 4.76 0 0 0 3.19-1.41m.27 2.62a6.74 6.74 0 0 1-5.37 2c-3.47 0-6-1.91-6-5.58 0-3.91 3.11-5.82 7.4-5.82a14.08 14.08 0 0 1 3.72.44v-1.74c0-1.69-.92-2.58-3.4-2.58-2.9 0-3.43 1.46-4.81 1.46a1.61 1.61 0 0 1-1.62-1.78v-.1a2.35 2.35 0 0 1 1.81-2.4 14.9 14.9 0 0 1 5.39-.93c5.12 0 7.75 1.71 7.75 6v10.43c0 1.77-.6 2.62-2.27 2.62h-.08a2.52 2.52 0 0 1-2.52-2"/><path class="cls-1" d="M156.28 71.91v9.56a5 5 0 0 0 3.37 1.09c2.12 0 4.18-.91 4.18-5.76s-1.83-5.8-4.11-5.8a9.17 9.17 0 0 0-3.43.92m0-7.29v4.47a8.52 8.52 0 0 1 5.62-2.1c3.57 0 7.15 2.34 7.15 9.31 0 7.19-3.93 9.82-7.93 9.82a8 8 0 0 1-5.38-1.78 2.7 2.7 0 0 1-2.31 1.7h-.11c-1.41 0-2.22-.75-2.22-2.62v-19.87c0-1.7.7-2.62 2.44-2.62h.11c1.81 0 2.62 1.1 2.62 3.68"/><path class="cls-1" d="M177.63 64.62v18.91a2.35 2.35 0 0 1-2.56 2.55h-.07a2.34 2.34 0 0 1-2.55-2.55v-20c0-1.7.71-2.62 2.44-2.62h.11c1.77 0 2.62 1.1 2.62 3.68"/><path class="cls-1" d="M186.3 74.64h6.9c-.1-3.29-1.2-4.36-3.22-4.36-1.8 0-3.29.88-3.68 4.36m-.07 3.12c.25 3.71 2 4.74 4.89 4.74 3.12 0 3.85-1.52 5.06-1.52a1.53 1.53 0 0 1 1.56 1.76v.12a2.43 2.43 0 0 1-1.59 2.23 13 13 0 0 1-5.81 1.06c-6.08 0-9.42-3.61-9.42-9.45s3.89-9.7 9.08-9.7c5.74 0 8.32 3.55 8.32 8.4 0 1.49-.81 2.33-2.48 2.33h-9.59z"/><path class="cls-1" d="M204.29 70.61h.54a.59.59 0 1 0 0-1.17h-.54v1.17zm2.13 1.51a.46.46 0 0 1-.41.72.7.7 0 0 1-.6-.47l-.59-1.08h-.51v1.06a.44.44 0 0 1-.49.49.45.45 0 0 1-.5-.49v-2.9a.62.62 0 0 1 .7-.69h1c1.06 0 1.58.45 1.58 1.26a1.17 1.17 0 0 1-.69 1.07zm-1.63 1.83a3.11 3.11 0 1 0-3.11-3.1 2.91 2.91 0 0 0 3.11 3.1m0 .7a3.81 3.81 0 1 1 3.89-3.8 3.71 3.71 0 0 1-3.89 3.8"/></svg>