<svg xmlns="http://www.w3.org/2000/svg" viewBox="0 0 808.32 203.34"><title>logo-webflow</title><path d="M261 79.44c0-14.52-14.07-29.91-38.48-29.91-27.41 0-57.49 20.07-62.14 60.17-4.7 40.55 20.55 58.46 45.9 58.46s38.72-9.88 52.23-23.16c-11.71-14.74-26.8-7.87-29.66-6.44a30.49 30.49 0 0 1-15.71 3.77c-9.83 0-19.79-4.44-19.79-22.69 62.82-5.99 67.65-25.64 67.65-40.2zm-31.14 2.42c-.41 4.48-2.24 12.22-34 16.47 6.71-23.8 19.49-25.57 25.4-25.57a8.29 8.29 0 0 1 8.56 9.11zm-106.4 3.87s-13.51 42.37-14.55 45.92c-.42-3.55-10.3-79.65-10.3-79.65-23 0-35.32 16.35-41.81 33.72 0 0-16.43 42.5-17.76 46.05-.08-3.34-2.52-45.61-2.52-45.61-1.4-21.25-20.8-34.11-36.52-34.11l18.9 115.3c24.1-.07 37.1-16.35 43.89-33.74 0 0 14.46-37.49 15.05-39.19.15 1.63 10.39 72.93 10.39 72.93 24.16 0 37.2-15.28 44.22-32l33.91-83.31c-23.89.01-36.46 16.32-42.94 33.7zm226.24-36.36c-14.85 0-26.3 8.07-35.93 20v-.09l8.57-69.28c-19.77 0-35.93 17.21-39 42.75l-15 123.7c11.41 0 23.49-3.31 30-11.7 5.84 7.51 14.51 13.48 27.36 13.48 33.35 0 56.27-38.76 56.27-75.16-.03-33.2-16.18-43.7-32.27-43.7zm-3.06 59.42c-3.46 20.35-14.77 34.07-25.72 34.07l-15.7-4.88c2.06-17.79 3.42-28.7 7.44-38.09s13.5-24.39 23.44-24.39c9.65.01 13.99 12.96 10.53 33.3zm118.9-56.73h-23.34l.11-1.22c1.59-15.24 5.24-23.24 17.06-24.47 8.07-.84 11.72-5 12.57-9.56.67-3.56 2.92-16.13 2.92-16.13-46.86-.27-61.51 19.95-65.25 50.67l-.09.7h-.46c-7.6 0-16 8.61-17.41 19.54l-.51 4h15.56l-13.07 108.25-4 19.45q.8 0 1.61.05c21.86-.83 35.93-18.07 39-43.18l10.21-84.53h7.32c7.16 0 15.58-7.18 17.14-19.18zm121.17-2c-26.9 0-52.26 19.8-60.06 50.95s4 67.92 43.6 67.92 62.27-38.32 62.27-70.16-21.52-48.72-45.81-48.72zm10.91 57.82c-1.4 14.12-7.62 35.46-24.62 35.46s-14.66-25-13-36.92c1.77-12.74 8.94-30.78 24.17-30.78 13.72-.01 15.02 16.28 13.45 32.23zm167.76-22.14s-13.51 42.37-14.55 45.92c-.37-3.56-10.26-79.66-10.26-79.66-23 0-35.32 16.35-41.81 33.72 0 0-16.43 42.5-17.76 46.05-.08-3.34-2.52-45.61-2.52-45.61-1.39-21.25-20.8-34.1-36.51-34.1l18.9 115.3c24.14-.08 37.07-16.4 43.89-33.74 0 0 14.46-37.49 15-39.19.15 1.63 10.39 72.93 10.39 72.93 24.17 0 37.2-15.28 44.22-32l33.91-83.31c-23.84 0-36.41 16.31-42.9 33.69zm-277.86-85.06l-19.6 158.1-4 19.55q.79 0 1.6.05c21.11-.26 36.08-18.78 38.9-42.14l11.33-90.75c3.4-27.65-13.09-44.81-28.23-44.81z"/></svg>